<svg width="512" height="512" viewBox="0 0 512 512" fill="none" xmlns="http://www.w3.org/2000/svg">
<path d="M45.746 225.086C49.973 225.086 53.3997 228.508 53.3997 232.731V285.855H37V225.086H45.746Z" fill="#F3F3F3"/>
<path d="M98.8374 242.083C107.302 242.083 108.472 247.989 108.472 253.092V285.855H92.4254V258.112C92.4254 256.703 92.1315 255.735 91.5437 255.206C91.0147 254.678 90.0448 254.413 88.6341 254.413C87.1646 254.413 85.5775 254.619 83.8729 255.03C82.2271 255.441 80.1404 256.204 77.6128 257.32L76.8193 249.041C79.8758 246.34 83.0206 244.315 86.2535 242.964C89.4864 241.555 95.722 242.083 98.8374 242.083ZM75.9376 242.083L77.8773 250.891L79.288 252.036V285.855H63.241V242.083H75.9376Z" fill="#F3F3F3"/>
<path d="M270.129 242.083L256.462 282.068C256.11 283.242 255.463 284.182 254.523 284.886C253.641 285.532 252.583 285.855 251.348 285.855H237.594C236.418 285.855 235.36 285.532 234.42 284.886C233.538 284.182 232.921 283.242 232.568 282.068L218.902 242.083H235.83L242.355 267.712C242.708 269.004 243.002 270.354 243.237 271.764C243.472 273.114 243.707 274.464 243.942 275.815H245.088C245.324 274.464 245.588 273.114 245.882 271.764C246.176 270.354 246.44 269.004 246.675 267.712L253.2 242.083H270.129Z" fill="#F3F3F3"/>
<path d="M298.358 240.85C302.297 240.85 305.618 241.379 308.322 242.436C311.084 243.493 313.171 245.254 314.582 247.72C315.993 250.186 316.698 253.591 316.698 257.936V285.855H303.913L301.709 276.431L300.651 274.846V257.848C300.592 256.028 300.122 254.736 299.24 253.973C298.417 253.151 296.889 252.74 294.655 252.74C292.363 252.74 289.541 252.799 286.191 252.916C285.546 252.928 284.895 252.942 284.239 252.96C279.423 253.091 275.193 249.663 274.54 244.895L274.288 243.052C276.463 242.641 278.99 242.289 281.871 241.995C284.81 241.643 287.749 241.379 290.688 241.203C293.627 240.968 296.184 240.85 298.358 240.85ZM310.35 258.993L310.261 267.096H291.481C290.129 267.155 289.13 267.507 288.483 268.153C287.896 268.74 287.602 269.562 287.602 270.619V272.292C287.602 273.408 287.954 274.288 288.66 274.934C289.424 275.521 290.541 275.815 292.01 275.815C293.48 275.815 295.037 275.492 296.683 274.846C298.329 274.2 299.946 273.32 301.533 272.204C303.12 271.088 304.501 269.885 305.677 268.593V274.23C305.206 275.169 304.472 276.343 303.472 277.752C302.532 279.162 301.297 280.6 299.769 282.068C298.241 283.477 296.389 284.651 294.214 285.591C292.04 286.53 289.512 287 286.632 287C283.987 287 281.547 286.53 279.314 285.591C277.08 284.651 275.287 283.272 273.935 281.451C272.642 279.631 271.996 277.341 271.996 274.582V270.178C271.996 266.655 273.23 263.925 275.699 261.988C278.226 259.991 281.635 258.993 285.926 258.993H310.35Z" fill="#F3F3F3"/>
<path d="M368.049 242.083V285.855H352.09V242.083H368.049Z" fill="#F3F3F3"/>
<path d="M473.413 242.083L463.185 256.791C462.597 257.848 461.833 258.817 460.893 259.698C459.952 260.579 459.188 261.195 458.6 261.547V261.9C459.188 262.252 459.952 262.956 460.893 264.013C461.833 265.07 462.597 266.127 463.185 267.184L475 285.855H457.278L443.523 261.459L455.779 242.083H473.413ZM438.246 225C443.318 225 447.43 229.107 447.43 234.174V248.689C447.43 250.803 447.283 252.946 446.989 255.118C446.754 257.291 446.343 259.375 445.755 261.371C446.225 263.191 446.607 265.129 446.901 267.184C447.254 269.239 447.43 271.118 447.43 272.82V285.855H431.383V225H438.246ZM448.99 256.968V266.303H442.581V256.968H448.99Z" fill="#F3F3F3"/>
<path d="M152.807 242.083C161.271 242.083 162.442 247.989 162.442 253.092V285.855H146.395V258.112C146.395 256.703 146.101 255.735 145.513 255.206C144.984 254.678 144.014 254.413 142.604 254.413C141.134 254.413 139.547 254.619 137.842 255.03C136.197 255.441 134.11 256.204 131.582 257.32L130.789 249.041C133.845 246.34 136.99 244.315 140.223 242.964C143.456 241.555 149.692 242.083 152.807 242.083ZM129.907 242.083L131.847 250.891L133.258 252.036V285.855H117.211V242.083H129.907Z" fill="#F3F3F3"/>
<path d="M412.879 242.083C421.343 242.083 422.514 247.989 422.514 253.092V285.855H406.467V258.112C406.467 256.703 406.173 255.735 405.585 255.206C405.056 254.678 404.086 254.413 402.676 254.413C401.206 254.413 399.619 254.619 397.915 255.03C396.269 255.441 394.182 256.204 391.654 257.32L390.861 249.041C393.918 246.34 397.062 244.315 400.295 242.964C403.528 241.555 409.764 242.083 412.879 242.083ZM389.979 242.083L391.919 250.891L393.33 252.036V285.855H377.283V242.083H389.979Z" fill="#F3F3F3"/>
<path d="M193.135 242.125C198.882 242.125 203.485 242.85 206.945 244.299C210.405 245.693 212.897 248.006 214.421 251.239C215.946 254.416 216.708 258.708 216.708 264.115C216.708 269.467 215.946 273.731 214.421 276.908C212.897 280.03 210.405 282.315 206.945 283.765C203.485 285.158 198.882 285.855 193.135 285.855C187.388 285.855 182.785 285.158 179.325 283.765C175.866 282.315 173.373 280.03 171.849 276.908C170.324 273.731 169.562 269.467 169.562 264.115C169.562 258.708 170.324 254.416 171.849 251.239C173.373 248.006 175.866 245.693 179.325 244.299C182.785 242.85 187.388 242.125 193.135 242.125ZM193.135 252.744C191.317 252.744 189.91 253.051 188.913 253.664C187.975 254.277 187.3 255.392 186.89 257.008C186.479 258.625 186.274 260.994 186.274 264.115C186.274 267.181 186.479 269.522 186.89 271.139C187.3 272.756 187.975 273.87 188.913 274.484C189.91 275.041 191.317 275.32 193.135 275.32C194.953 275.32 196.36 275.041 197.357 274.484C198.354 273.87 199.028 272.756 199.38 271.139C199.791 269.522 199.996 267.181 199.996 264.115C199.996 260.994 199.791 258.625 199.38 257.008C199.028 255.392 198.354 254.277 197.357 253.664C196.36 253.051 194.953 252.744 193.135 252.744Z" fill="#F3F3F3"/>
<path d="M353.222 234.21C353.215 234.122 353.212 234.034 353.212 233.945C353.212 231.538 355.594 229.587 358.532 229.587C360.21 229.587 361.706 230.223 362.681 231.218C363.041 231.054 363.436 230.963 363.852 230.963C365.506 230.963 366.846 232.401 366.846 234.174C366.846 234.268 366.843 234.361 366.835 234.453C367.418 234.894 367.792 235.581 367.792 236.353C367.792 237.683 366.681 238.761 365.31 238.761H354.355C352.984 238.761 351.872 237.683 351.872 236.353C351.872 235.419 352.421 234.609 353.222 234.21Z" fill="#F3F3F3"/>
<path d="M332.126 225C337.198 225 341.31 229.107 341.31 234.174V285.855H325.085V225H332.126Z" fill="#F3F3F3"/>
</svg>
