<svg width="65" height="50" viewBox="0 0 65 50" fill="none" xmlns="http://www.w3.org/2000/svg">
<path d="M1.29764 40.7275C1.9248 40.7275 2.43321 41.2402 2.43321 41.8725V49.8286H0V40.7275H1.29764Z" fill="#F3F3F3"/>
<path d="M9.17475 43.2732C10.4306 43.2732 10.6043 44.1576 10.6043 44.9219V49.8286H8.22342V45.6738C8.22342 45.4627 8.17981 45.3176 8.0926 45.2385C8.01411 45.1593 7.87021 45.1198 7.6609 45.1198C7.44287 45.1198 7.2074 45.1506 6.95449 45.2121C6.7103 45.2737 6.40069 45.388 6.02568 45.555L5.90795 44.3152C6.36145 43.9107 6.82803 43.6073 7.3077 43.4051C7.78736 43.1941 8.71253 43.2732 9.17475 43.2732ZM5.77713 43.2732L6.06493 44.5922L6.27424 44.7637V49.8286H3.89336V43.2732H5.77713Z" fill="#F3F3F3"/>
<path d="M34.5891 43.2732L32.5614 49.2614C32.5091 49.4373 32.4132 49.578 32.2736 49.6835C32.1428 49.7802 31.9858 49.8286 31.8027 49.8286H29.7619C29.5875 49.8286 29.4305 49.7802 29.291 49.6835C29.1602 49.578 29.0686 49.4373 29.0163 49.2614L26.9886 43.2732H29.5003L30.4683 47.1115C30.5207 47.3049 30.5643 47.5072 30.5992 47.7182C30.634 47.9204 30.6689 48.1227 30.7038 48.3249H30.8739C30.9088 48.1227 30.948 47.9204 30.9916 47.7182C31.0352 47.5072 31.0745 47.3049 31.1093 47.1115L32.0774 43.2732H34.5891Z" fill="#F3F3F3"/>
<path d="M38.7775 43.0885C39.3618 43.0885 39.8546 43.1677 40.2557 43.326C40.6656 43.4842 40.9752 43.748 41.1846 44.1173C41.3939 44.4867 41.4985 44.9967 41.4985 45.6474V49.8286H39.6017L39.2746 48.4173L39.1176 48.1798V45.6342C39.1089 45.3616 39.0391 45.1681 38.9083 45.0538C38.7862 44.9307 38.5595 44.8692 38.2281 44.8692C37.8879 44.8692 37.4693 44.878 36.9722 44.8956C36.8765 44.8972 36.78 44.8994 36.6827 44.9021C35.9681 44.9217 35.3405 44.4083 35.2436 43.6942L35.2062 43.4183C35.5289 43.3567 35.9039 43.304 36.3312 43.26C36.7673 43.2072 37.2033 43.1677 37.6394 43.1413C38.0755 43.1061 38.4548 43.0885 38.7775 43.0885ZM40.5566 45.8057L40.5435 47.0191H37.7571C37.5565 47.0279 37.4083 47.0807 37.3123 47.1774C37.2251 47.2653 37.1815 47.3884 37.1815 47.5467V47.7973C37.1815 47.9644 37.2339 48.0963 37.3385 48.193C37.4519 48.281 37.6176 48.3249 37.8356 48.3249C38.0536 48.3249 38.2848 48.2766 38.5289 48.1798C38.7731 48.0831 39.013 47.9512 39.2484 47.7841C39.4839 47.6171 39.6889 47.4368 39.8633 47.2434V48.0875C39.7935 48.2282 39.6845 48.4041 39.5362 48.6151C39.3967 48.8261 39.2136 49.0416 38.9868 49.2614C38.7601 49.4724 38.4853 49.6483 38.1627 49.789C37.84 49.9297 37.465 50 37.0376 50C36.6452 50 36.2832 49.9297 35.9518 49.789C35.6204 49.6483 35.3544 49.4417 35.1539 49.1691C34.962 48.8965 34.8661 48.5536 34.8661 48.1403V47.4808C34.8661 46.9532 35.0492 46.5443 35.4155 46.2541C35.7905 45.9551 36.2963 45.8057 36.933 45.8057H40.5566Z" fill="#F3F3F3"/>
<path d="M17.1822 43.2732C18.438 43.2732 18.6117 44.1576 18.6117 44.9219V49.8286H16.2308V45.6738C16.2308 45.4627 16.1872 45.3176 16.1 45.2385C16.0215 45.1593 15.8776 45.1198 15.6683 45.1198C15.4503 45.1198 15.2148 45.1506 14.9619 45.2121C14.7177 45.2737 14.4081 45.388 14.0331 45.555L13.9154 44.3152C14.3689 43.9107 14.8354 43.6073 15.3151 43.4051C15.7948 43.1941 16.7199 43.2732 17.1822 43.2732ZM13.7845 43.2732L14.0723 44.5922L14.2816 44.7637V49.8286H11.9008V43.2732H13.7845Z" fill="#F3F3F3"/>
<path d="M23.1656 43.2794C24.0183 43.2794 24.7012 43.3879 25.2146 43.605C25.7279 43.8137 26.0976 44.1602 26.3239 44.6443C26.5501 45.1202 26.6632 45.763 26.6632 46.5728C26.6632 47.3742 26.5501 48.0128 26.3239 48.4887C26.0976 48.9562 25.7279 49.2985 25.2146 49.5155C24.7012 49.7242 24.0183 49.8286 23.1656 49.8286C22.313 49.8286 21.63 49.7242 21.1167 49.5155C20.6034 49.2985 20.2336 48.9562 20.0074 48.4887C19.7812 48.0128 19.6681 47.3742 19.6681 46.5728C19.6681 45.763 19.7812 45.1202 20.0074 44.6443C20.2336 44.1602 20.6034 43.8137 21.1167 43.605C21.63 43.3879 22.313 43.2794 23.1656 43.2794ZM23.1656 44.8697C22.8959 44.8697 22.6871 44.9157 22.5392 45.0075C22.4 45.0993 22.2999 45.2663 22.239 45.5084C22.1781 45.7505 22.1477 46.1053 22.1477 46.5728C22.1477 47.0319 22.1781 47.3826 22.239 47.6247C22.2999 47.8667 22.4 48.0337 22.5392 48.1255C22.6871 48.209 22.8959 48.2508 23.1656 48.2508C23.4353 48.2508 23.6441 48.209 23.792 48.1255C23.94 48.0337 24.04 47.8667 24.0922 47.6247C24.1531 47.3826 24.1836 47.0319 24.1836 46.5728C24.1836 46.1053 24.1531 45.7505 24.0922 45.5084C24.04 45.2663 23.94 45.0993 23.792 45.0075C23.6441 44.9157 23.4353 44.8697 23.1656 44.8697Z" fill="#F3F3F3"/>
<path d="M47.4768 8.65044C47.1149 10.3197 45.6372 11.5696 43.8692 11.5696C41.83 11.5696 40.1768 9.90664 40.1768 7.85526C40.1768 5.80388 41.83 4.14091 43.8692 4.14091C45.1235 4.14091 46.2317 4.77002 46.899 5.73167C49.8098 5.25479 52.1891 5.98962 53.3179 6.49176C57.0669 8.08832 59.1283 10.8828 60.1677 13.6433C61.0217 15.9111 61.1977 18.1765 61.0835 19.816C63.6171 21.9022 65.1409 24.6614 64.9897 27.9502C64.9779 30.4936 63.7634 32.8525 62.0085 34.554C60.2457 36.2632 57.8275 37.4183 55.2526 37.4215L18.3178 37.4215C17.5021 37.4215 16.8408 36.7563 16.8408 35.9358C16.8408 35.1152 17.5021 34.45 18.3178 34.45L55.2321 34.45L55.2418 34.45C56.9461 34.45 58.6591 33.6744 59.9586 32.4145C61.2598 31.1529 62.0359 29.5152 62.0359 27.9127V27.8756L62.0377 27.8385C62.1544 25.4911 61.0219 23.4042 58.6603 21.6885L57.9246 21.154L58.0661 20.2523C58.2522 19.067 58.2277 16.8797 57.4054 14.6959C56.5998 12.5565 55.0459 10.4512 52.1565 9.22397L52.1438 9.21857L52.1312 9.21294C51.3675 8.87155 49.6364 8.32189 47.4768 8.65044Z" fill="#F3F3F3"/>
<path d="M16.2604 5.71868C18.8692 4.17493 22.6075 3.11264 26.5804 2.98448C30.5471 2.85653 34.6138 3.66357 37.9287 5.70518C38.6243 6.13364 39.5336 5.91367 39.9595 5.21386C40.3854 4.51405 40.1667 3.59941 39.4711 3.17096C35.5489 0.755295 30.8764 -0.127106 26.4858 0.0145278C22.1014 0.15596 17.864 1.32231 14.7627 3.15746C9.72801 6.13666 4.95452 11.5769 5.50693 18.8452C2.92485 20.1945 0.157112 22.8007 0.00419522 27.5677C-0.139863 32.0586 3.44083 36.5368 8.47982 37.3089C8.98287 38.7586 10.3541 39.7987 11.9669 39.7987C14.0061 39.7987 15.6593 38.1357 15.6593 36.0844C15.6593 36.0537 15.6589 36.0231 15.6582 35.9925C15.6589 35.9737 15.6592 35.9548 15.6592 35.9358C15.6592 35.8498 15.652 35.7655 15.638 35.6835C15.4393 33.8207 13.8715 32.37 11.9669 32.37C10.5564 32.37 9.33073 33.1655 8.70891 34.3348C5.22181 33.69 2.86416 30.5446 2.95658 27.6635C3.07862 23.8592 5.44865 22.029 7.6552 21.115L8.72394 20.6723L8.55369 19.5223C7.64489 13.3839 11.506 8.53202 16.2604 5.71868Z" fill="#00A2D8"/>
<path d="M49.1174 43.2731V49.8285H46.7496V43.2731H49.1174Z" fill="#00A2D8"/>
<path d="M64.7503 43.2731L63.2328 45.4758C63.1456 45.6341 63.0322 45.7792 62.8926 45.9111C62.7531 46.043 62.6397 46.1353 62.5525 46.188V46.2408C62.6397 46.2936 62.7531 46.3991 62.8926 46.5574C63.0322 46.7156 63.1456 46.8739 63.2328 47.0322L64.9857 49.8285H62.3563L60.3155 46.1749L62.1339 43.2731H64.7503ZM59.5325 40.7146C60.2851 40.7146 60.8952 41.3297 60.8952 42.0885V44.2623C60.8952 44.5789 60.8734 44.8998 60.8298 45.2252C60.7949 45.5505 60.7339 45.8627 60.6467 46.1617C60.7164 46.4343 60.7731 46.7244 60.8167 47.0322C60.869 47.34 60.8952 47.6213 60.8952 47.8764V49.8285H58.5143V40.7146H59.5325ZM61.1266 45.5022V46.9003H60.1757V45.5022H61.1266Z" fill="#00A2D8"/>
<path d="M55.7689 43.2731C57.0247 43.2731 57.1984 44.1575 57.1984 44.9218V49.8285H54.8176V45.6736C54.8176 45.4626 54.774 45.3175 54.6867 45.2384C54.6083 45.1592 54.4644 45.1197 54.255 45.1197C54.037 45.1197 53.8015 45.1504 53.5486 45.212C53.3044 45.2735 52.9948 45.3879 52.6198 45.5549L52.5021 44.3151C52.9556 43.9106 53.4222 43.6072 53.9018 43.405C54.3815 43.1939 55.3067 43.2731 55.7689 43.2731ZM52.3713 43.2731L52.6591 44.5921L52.8684 44.7635V49.8285H50.4875V43.2731H52.3713Z" fill="#00A2D8"/>
<path d="M46.9176 42.0939C46.9167 42.0808 46.9162 42.0675 46.9162 42.0542C46.9162 41.6938 47.2695 41.4016 47.7055 41.4016C47.9544 41.4016 48.1764 41.4969 48.3211 41.6458C48.3745 41.6212 48.4331 41.6077 48.4948 41.6077C48.7402 41.6077 48.9391 41.823 48.9391 42.0885C48.9391 42.1026 48.9385 42.1166 48.9374 42.1303C49.0238 42.1963 49.0794 42.2992 49.0794 42.4149C49.0794 42.6141 48.9145 42.7755 48.7111 42.7755H47.0857C46.8823 42.7755 46.7174 42.6141 46.7174 42.4149C46.7174 42.275 46.7987 42.1537 46.9176 42.0939Z" fill="#00A2D8"/>
<path d="M43.7876 40.7146C44.5402 40.7146 45.1503 41.3297 45.1503 42.0885V49.8285H42.7429V40.7146H43.7876Z" fill="#00A2D8"/>
</svg>
